<?xml version="1.0" encoding="UTF-8" standalone="no"?>
<!-- Generator: Adobe Illustrator 21.1.0, SVG Export Plug-In . SVG Version: 6.00 Build 0)  -->

<svg
   xmlns:dc="http://purl.org/dc/elements/1.1/"
   xmlns:cc="http://creativecommons.org/ns#"
   xmlns:rdf="http://www.w3.org/1999/02/22-rdf-syntax-ns#"
   xmlns:svg="http://www.w3.org/2000/svg"
   xmlns="http://www.w3.org/2000/svg"
   xmlns:sodipodi="http://sodipodi.sourceforge.net/DTD/sodipodi-0.dtd"
   xmlns:inkscape="http://www.inkscape.org/namespaces/inkscape"
   version="1.1"
   id="Layer_1"
   x="0px"
   y="0px"
   width="360px"
   height="60px"
   viewBox="0 0 360 60"
   style="enable-background:new 0 0 360 60;"
   xml:space="preserve"
   inkscape:version="0.91 r13725"
   sodipodi:docname="control_bar.svg"><metadata
     id="metadata95"><rdf:RDF><cc:Work
         rdf:about=""><dc:format>image/svg+xml</dc:format><dc:type
           rdf:resource="http://purl.org/dc/dcmitype/StillImage" /></cc:Work></rdf:RDF></metadata><defs
     id="defs93" /><sodipodi:namedview
     pagecolor="#ffffff"
     bordercolor="#666666"
     borderopacity="1"
     objecttolerance="10"
     gridtolerance="10"
     guidetolerance="10"
     inkscape:pageopacity="0"
     inkscape:pageshadow="2"
     inkscape:window-width="1621"
     inkscape:window-height="1041"
     id="namedview91"
     showgrid="false"
     inkscape:zoom="1.7222222"
     inkscape:cx="180"
     inkscape:cy="169.35484"
     inkscape:window-x="0"
     inkscape:window-y="0"
     inkscape:window-maximized="0"
     inkscape:current-layer="Layer_1" /><style
     type="text/css"
     id="style3">
	.st0{fill:#FFFFFF;}
</style><rect
     id="rect7"
     height="59"
     width="59"
     y="0.5"
     x="0.5" /><path
     style="fill:#ffffff"
     inkscape:connector-curvature="0"
     id="path9"
     d="M 59,1 59,59 1,59 1,1 59,1 M 60,0 0,0 0,60 60,60 60,0 60,0 Z"
     class="st0" /><rect
     id="rect13"
     height="59"
     width="59"
     y="0.5"
     x="60.5" /><path
     style="fill:#ffffff"
     inkscape:connector-curvature="0"
     id="path15"
     d="m 119,1 0,58 -58,0 0,-58 58,0 m 1,-1 -60,0 0,60 60,0 0,-60 0,0 z"
     class="st0" /><rect
     id="rect19"
     height="59"
     width="59"
     y="0.5"
     x="120.5" /><path
     style="fill:#ffffff"
     inkscape:connector-curvature="0"
     id="path21"
     d="m 179,1 0,58 -58,0 0,-58 58,0 m 1,-1 -60,0 0,60 60,0 0,-60 0,0 z"
     class="st0" /><rect
     id="rect25"
     height="59"
     width="59"
     y="0.5"
     x="180.5" /><path
     style="fill:#ffffff"
     inkscape:connector-curvature="0"
     id="path27"
     d="m 239,1 0,58 -58,0 0,-58 58,0 m 1,-1 -60,0 0,60 60,0 0,-60 0,0 z"
     class="st0" /><rect
     id="rect31"
     height="59"
     width="59"
     y="0.5"
     x="240.5" /><path
     style="fill:#ffffff"
     inkscape:connector-curvature="0"
     id="path33"
     d="m 299,1 0,58 -58,0 0,-58 58,0 m 1,-1 -60,0 0,60 60,0 0,-60 0,0 z"
     class="st0" /><rect
     id="rect37"
     height="59"
     width="59"
     y="0.5"
     x="300.5" /><path
     style="fill:#ffffff"
     inkscape:connector-curvature="0"
     id="path39"
     d="m 359,1 0,58 -58,0 0,-58 58,0 m 1,-1 -60,0 0,60 60,0 0,-60 0,0 z"
     class="st0" /><polygon
     style="fill:#ffffff"
     id="polygon43"
     points="138.9,42.8 161.1,30 138.9,17.2 "
     class="st0" /><polygon
     class="st0"
     points="102,42.8 102,17.2 90.6,30 "
     id="polygon49"
     style="fill:#ffffff" /><polygon
     class="st0"
     points="89.4,42.8 89.4,17.2 78,30 "
     id="polygon53"
     style="fill:#ffffff" /><polygon
     class="st0"
     points="258,17.2 258,42.8 269.4,30 "
     id="polygon59"
     style="fill:#ffffff" /><polygon
     class="st0"
     points="270.6,17.2 270.6,42.8 282,30 "
     id="polygon63"
     style="fill:#ffffff" /><rect
     style="fill:#ffffff"
     id="rect67"
     height="25.200001"
     width="2.4000001"
     class="st0"
     y="17.4"
     x="202.8" /><rect
     style="fill:#ffffff"
     id="rect69"
     height="25.200001"
     width="2.4000001"
     class="st0"
     y="17.4"
     x="214.8" /><polygon
     class="st0"
     points="37.8,42.8 37.8,17.2 26.4,30 "
     id="polygon75"
     style="fill:#ffffff" /><rect
     x="22.200001"
     y="17.4"
     class="st0"
     width="2.4000001"
     height="25.200001"
     id="rect79"
     style="fill:#ffffff" /><polygon
     class="st0"
     points="322.2,17.2 322.2,42.8 333.6,30 "
     id="polygon85"
     style="fill:#ffffff" /><rect
     x="335.39999"
     y="17.5"
     class="st0"
     width="2.4000001"
     height="25.200001"
     id="rect89"
     style="fill:#ffffff" /></svg>